<?xml version="1.0" standalone="no"?>
<!DOCTYPE svg PUBLIC "-//W3C//DTD SVG 20010904//EN"
 "http://www.w3.org/TR/2001/REC-SVG-20010904/DTD/svg10.dtd">
<svg version="1.0" xmlns="http://www.w3.org/2000/svg"
 width="500.000000pt" height="500.000000pt" viewBox="0 0 500.000000 500.000000"
 preserveAspectRatio="xMidYMid meet">

<g transform="translate(0.000000,500.000000) scale(0.100000,-0.100000)"
fill="#ffffff" stroke="none">
<path d="M2382 4048 c-113 -55 -181 -189 -152 -300 17 -69 48 -117 105 -163
l46 -38 -3 -136 -3 -136 -55 -6 c-94 -11 -154 -20 -192 -30 -170 -42 -184 -47
-321 -113 -147 -71 -283 -182 -407 -331 -40 -49 -108 -168 -123 -216 -3 -10
-22 -19 -44 -23 -87 -16 -167 -92 -192 -181 -6 -23 -11 -128 -11 -252 0 -188
2 -218 20 -265 34 -91 106 -147 208 -164 23 -4 42 -12 42 -19 0 -7 10 -37 22
-66 88 -218 333 -396 636 -464 282 -63 681 -71 984 -19 349 59 607 221 719
450 21 44 39 88 39 97 0 11 8 17 23 17 34 0 98 22 138 47 43 27 83 84 98 139
14 51 14 447 0 498 -26 94 -106 168 -195 182 -24 3 -44 12 -44 18 0 7 -10 32
-21 57 -70 143 -238 330 -381 422 -198 128 -384 191 -625 213 l-73 7 0 141 0
141 46 35 c26 19 58 55 72 80 22 38 26 58 26 130 1 75 -2 90 -26 131 -32 55
-85 103 -135 124 -53 22 -168 19 -221 -7z m553 -1203 c95 -23 238 -94 308
-152 103 -87 167 -178 214 -308 16 -44 18 -84 18 -320 0 -271 -1 -282 -38
-365 -55 -122 -179 -226 -331 -277 l-81 -28 -525 0 -525 0 -80 27 c-173 59
-290 167 -346 318 -23 62 -24 75 -24 330 0 286 1 293 61 415 90 186 314 338
549 374 33 5 211 8 395 7 276 -3 347 -6 405 -21z"/>
<path d="M2011 2354 c-73 -21 -111 -71 -111 -146 0 -152 175 -215 273 -98 95
113 -20 286 -162 244z"/>
<path d="M2910 2357 c-137 -35 -165 -215 -44 -284 136 -78 281 55 220 201 -25
59 -111 100 -176 83z"/>
<path d="M2117 1822 c-57 -62 44 -163 208 -209 61 -17 277 -18 343 -1 73 17
155 62 195 107 41 45 45 65 21 99 -23 33 -67 29 -117 -11 -73 -58 -139 -77
-274 -78 -111 -1 -202 26 -260 76 -46 40 -90 46 -116 17z"/>
</g>
</svg>
