<?xml version="1.0" standalone="no"?>
<!DOCTYPE svg PUBLIC "-//W3C//DTD SVG 20010904//EN"
 "http://www.w3.org/TR/2001/REC-SVG-20010904/DTD/svg10.dtd">
<svg version="1.0" xmlns="http://www.w3.org/2000/svg"
 width="512.000000pt" height="512.000000pt" viewBox="0 0 512.000000 512.000000"
 preserveAspectRatio="xMidYMid meet">

<g transform="translate(0.000000,512.000000) scale(0.100000,-0.100000)"
fill="#000000" stroke="none">
<path d="M2463 5106 c-88 -29 -155 -87 -197 -173 -53 -104 -42 -228 27 -329
36 -52 115 -112 159 -121 l28 -5 0 -148 0 -148 -201 -4 c-197 -3 -201 -3 -220
-27 -22 -28 -25 -69 -5 -97 14 -18 37 -19 758 -25 823 -6 798 -4 943 -74 187
-90 322 -249 387 -455 l23 -75 0 -605 0 -605 -23 -75 c-42 -131 -93 -218 -183
-309 -76 -77 -182 -143 -285 -177 l-89 -29 -1025 0 -1025 0 -89 29 c-103 34
-209 100 -285 177 -90 91 -141 178 -183 309 l-23 75 0 605 0 605 23 75 c65
206 200 365 387 455 93 45 175 64 318 72 110 6 119 8 138 31 24 32 24 53 -1
85 -29 36 -73 42 -211 29 -139 -14 -224 -39 -339 -98 -264 -136 -441 -404
-466 -705 l-7 -79 -119 0 c-130 0 -166 -11 -222 -66 -63 -63 -66 -79 -66 -402
0 -323 2 -337 63 -401 55 -58 96 -71 230 -71 l117 0 0 -39 c0 -69 30 -213 61
-290 84 -209 232 -369 433 -466 142 -69 184 -77 416 -84 l205 -6 3 -87 3 -88
-378 0 c-284 0 -390 -4 -428 -14 -157 -42 -279 -157 -326 -307 -17 -56 -19
-97 -19 -494 l0 -434 26 -20 27 -21 1723 0 c1703 0 1724 0 1744 20 29 29 32
52 28 218 -3 131 -5 153 -22 171 -25 27 -79 28 -106 1 -18 -18 -20 -33 -20
-140 l0 -120 -200 0 -200 0 0 363 c0 284 -3 375 -15 425 -17 72 -42 125 -81
172 l-27 32 149 -4 c132 -3 154 -6 192 -26 65 -35 119 -88 148 -148 23 -48 28
-71 32 -174 4 -100 8 -122 23 -136 30 -27 78 -22 106 10 20 24 23 37 23 109 0
102 -20 199 -55 268 -35 67 -121 158 -183 192 -97 53 -135 57 -524 57 l-359 0
3 88 3 87 205 6 c232 7 274 15 416 84 282 136 464 402 490 716 l7 79 116 0
c91 0 125 4 156 19 51 23 111 89 124 138 7 23 11 152 11 323 0 311 -3 329 -62
392 -52 55 -96 68 -226 68 l-119 0 -7 79 c-25 301 -201 568 -466 705 -183 95
-266 106 -807 106 l-403 0 0 149 0 149 28 5 c44 9 123 69 159 121 18 27 40 73
49 104 43 148 -39 320 -184 385 -59 25 -171 32 -229 13z m173 -155 c170 -77
111 -335 -76 -335 -187 0 -246 258 -76 335 52 24 100 24 152 0z m-1836 -2131
l0 -320 -109 0 c-160 0 -151 -18 -151 320 0 338 -9 320 151 320 l109 0 0 -320z
m3759 294 c20 -26 21 -39 21 -294 0 -338 9 -320 -151 -320 l-109 0 0 320 0
320 109 0 c106 0 110 -1 130 -26z m-1509 -1734 l0 -90 -490 0 -490 0 0 90 0
90 490 0 490 0 0 -90z m-1644 -273 c-41 -53 -75 -138 -86 -212 -5 -39 -10
-222 -10 -407 l0 -338 -195 0 -196 0 3 387 3 388 30 54 c36 65 92 115 159 140
41 16 77 20 184 20 l133 1 -25 -33z m2004 16 c69 -22 150 -96 181 -165 24 -52
24 -57 27 -430 l3 -378 -201 0 -200 0 0 293 c0 281 -1 294 -20 315 l-21 22
-639 0 -639 0 -20 -26 c-20 -26 -21 -38 -21 -315 l0 -289 -201 0 -200 0 3 373
c4 325 6 378 22 418 31 83 105 153 195 185 28 10 212 13 857 14 746 0 827 -2
874 -17z m-340 -733 l0 -240 -530 0 -530 0 0 240 0 240 530 0 530 0 0 -240z"/>
<path d="M1558 3794 c-32 -7 -81 -25 -110 -40 -71 -36 -169 -132 -207 -203
-59 -111 -61 -131 -61 -731 0 -592 2 -616 56 -723 61 -120 212 -231 348 -256
40 -7 362 -11 980 -11 1011 0 1002 0 1115 60 114 61 217 195 245 320 23 100
23 1123 1 1219 -22 92 -68 171 -139 239 -71 68 -139 106 -228 127 -91 21
-1912 21 -2000 -1z m1982 -150 c118 -35 200 -117 235 -236 14 -48 15 -125 13
-609 l-3 -554 -33 -67 c-38 -77 -92 -130 -171 -167 l-56 -26 -965 0 -965 0
-57 27 c-79 37 -140 96 -174 171 l-29 62 0 580 c0 577 0 580 22 627 28 60 96
134 148 160 91 48 68 47 1051 47 821 1 937 -1 984 -15z"/>
<path d="M1871 3114 c-17 -22 -21 -41 -21 -104 0 -95 20 -130 76 -130 59 0 74
25 74 130 0 77 -3 93 -20 110 -30 30 -83 27 -109 -6z"/>
<path d="M3142 3117 c-19 -20 -22 -35 -22 -110 0 -74 3 -90 20 -107 33 -33 75
-30 108 6 19 22 22 36 22 103 0 64 -4 83 -21 105 -27 34 -77 36 -107 3z"/>
<path d="M2342 2947 c-27 -29 -28 -67 -3 -98 19 -24 23 -24 215 -27 l196 -3
25 25 c32 32 33 75 2 104 -22 21 -32 22 -218 22 -191 0 -196 0 -217 -23z"/>
</g>
</svg>
